<svg width="1600" height="900" viewBox="0 0 1600 900" xmlns="http://www.w3.org/2000/svg" role="img" aria-label="Premium car driving on a mountain road">
  <defs>
    <linearGradient id="sky" x1="0" y1="0" x2="0" y2="1">
      <stop offset="0%" stop-color="#07181A"/>
      <stop offset="60%" stop-color="#0D332C"/>
      <stop offset="100%" stop-color="#06110F"/>
    </linearGradient>
    <linearGradient id="glow" x1="0" y1="0" x2="1" y2="0">
      <stop offset="0%" stop-color="#E7B319" stop-opacity="0"/>
      <stop offset="55%" stop-color="#E7B319" stop-opacity=".24"/>
      <stop offset="100%" stop-color="#E7B319" stop-opacity="0"/>
    </linearGradient>
    <linearGradient id="carBody" x1="0" y1="0" x2="1" y2="1">
      <stop offset="0%" stop-color="#D9DEE3"/>
      <stop offset="45%" stop-color="#8C97A2"/>
      <stop offset="100%" stop-color="#2A3137"/>
    </linearGradient>
    <linearGradient id="wind" x1="0" y1="0" x2="1" y2="1">
      <stop offset="0%" stop-color="#D8F3FF" stop-opacity=".95"/>
      <stop offset="100%" stop-color="#6FB8E0" stop-opacity=".25"/>
    </linearGradient>
    <filter id="blur" x="-50%" y="-50%" width="200%" height="200%">
      <feGaussianBlur stdDeviation="35"/>
    </filter>
  </defs>

  <rect width="1600" height="900" fill="url(#sky)"/>
  <ellipse cx="1220" cy="180" rx="180" ry="70" fill="#E7B319" opacity=".18" filter="url(#blur)"/>
  <ellipse cx="260" cy="220" rx="240" ry="100" fill="#42B78C" opacity=".12" filter="url(#blur)"/>
  <path d="M0 650C180 595 255 560 420 520C575 482 710 360 878 340C1030 322 1165 390 1315 365C1425 346 1510 306 1600 272V900H0V650Z" fill="#123B31"/>
  <path d="M0 720C220 650 360 618 510 558C660 498 782 450 930 410C1080 370 1230 392 1390 350C1490 324 1555 300 1600 286V900H0V720Z" fill="#081412"/>
  <path d="M1050 610C1138 570 1215 520 1320 470C1404 430 1504 388 1600 352V900H1010C995 770 1000 676 1050 610Z" fill="#0A2A22"/>
  <path d="M0 804H1600V900H0Z" fill="#04100D"/>
  <rect x="0" y="760" width="1600" height="8" fill="url(#glow)"/>

  <path d="M1090 624l320-4c40-1 74 29 77 69l6 96h-425l5-112c2-28 18-49 45-49Z" fill="url(#carBody)"/>
  <path d="M1165 556h152c25 0 47 13 59 35l32 59h-292l39-57c12-23 38-37 70-37Z" fill="url(#carBody)"/>
  <path d="M1198 569h116c15 0 29 8 36 21l18 34h-191l18-33c7-14 21-22 33-22Z" fill="url(#wind)"/>
  <circle cx="1175" cy="795" r="48" fill="#111" />
  <circle cx="1388" cy="795" r="48" fill="#111" />
  <circle cx="1175" cy="795" r="28" fill="#AAB3BB" />
  <circle cx="1388" cy="795" r="28" fill="#AAB3BB" />
  <circle cx="1175" cy="795" r="10" fill="#1E2328" />
  <circle cx="1388" cy="795" r="10" fill="#1E2328" />
  <path d="M1078 639h355c18 0 36 9 46 24l14 20h-470l10-17c10-17 29-27 45-27Z" fill="#3A424A"/>
  <path d="M1145 628h215" stroke="#ECEFF1" stroke-width="6" stroke-linecap="round" opacity=".7"/>
  <path d="M1160 652h175" stroke="#616A72" stroke-width="6" stroke-linecap="round" opacity=".8"/>
  <path d="M1233 580l-74 55" stroke="#FFFFFF" stroke-width="6" stroke-linecap="round" opacity=".25"/>
  <path d="M1294 580l74 55" stroke="#FFFFFF" stroke-width="6" stroke-linecap="round" opacity=".25"/>
  <path d="M0 806h920" stroke="#D4C08A" stroke-width="2" opacity=".2"/>
</svg>
